<svg width="25" height="25" viewBox="0 0 25 25" fill="none" xmlns="http://www.w3.org/2000/svg">
<path d="M7.26219 4.61195C7.9839 4.61195 8.64923 4.66833 9.25817 4.83748C9.86711 4.95025 10.3633 5.17578 10.8144 5.44643C11.2541 5.72834 11.5924 6.11175 11.818 6.6192C12.0435 7.12665 12.1563 7.73559 12.1563 8.40092C12.1563 9.17901 11.9871 9.85561 11.6037 10.3518C11.2654 10.8592 10.7129 11.299 10.0475 11.6373C10.9948 11.9192 11.7165 12.4154 12.1563 13.092C12.5961 13.7574 12.878 14.6031 12.878 15.5503C12.878 16.3284 12.7088 17.005 12.4382 17.5576C12.1563 18.1102 11.7165 18.6176 11.2203 18.9559C10.7241 19.2942 10.1152 19.5648 9.44987 19.734C8.78455 19.9031 8.11922 20.0159 7.4539 20.0159H0V4.61195H7.26219ZM6.8224 10.8592C7.43134 10.8592 7.92752 10.6901 8.3222 10.4082C8.70561 10.1263 8.87476 9.63008 8.87476 9.00986C8.87476 8.67156 8.81838 8.34454 8.70561 8.119C8.59284 7.89347 8.42369 7.72432 8.20943 7.56644C7.9839 7.45368 7.76964 7.34091 7.48773 7.28453C7.20581 7.22814 6.93517 7.22814 6.59687 7.22814H3.38301V10.8592H6.8224ZM6.99155 17.4448C7.32985 17.4448 7.65688 17.3884 7.93879 17.3321C8.22071 17.2757 8.49135 17.1629 8.71689 16.9938C8.94242 16.8246 9.10029 16.6555 9.26944 16.3848C9.38221 16.1029 9.49498 15.7759 9.49498 15.3812C9.49498 14.6031 9.26944 14.0393 8.82965 13.6559C8.38986 13.3176 7.78092 13.1484 7.05921 13.1484H3.39429V17.4448H7.00283H6.99155ZM17.6931 17.3884C18.1329 17.8395 18.7983 18.0538 19.6891 18.0538C20.2981 18.0538 20.8506 17.8846 21.3017 17.6027C21.7415 17.2644 22.0234 16.9374 22.1362 16.5991H24.8538C24.414 17.941 23.7487 18.8882 22.8579 19.4972C21.967 20.0497 20.9183 20.388 19.644 20.388C18.7531 20.388 17.9751 20.2189 17.2646 19.937C16.5429 19.6551 15.9904 19.2717 15.4942 18.7078C14.998 18.2004 14.6033 17.5914 14.3891 16.8697C14.1071 16.148 14.0057 15.3586 14.0057 14.4678C14.0057 13.6333 14.1184 12.8552 14.3891 12.1222C14.671 11.4005 15.0544 10.7803 15.5506 10.2277C16.0467 9.72029 16.6557 9.2805 17.321 8.99858C18.0427 8.71667 18.7644 8.54752 19.6553 8.54752C20.6025 8.54752 21.4257 8.71667 22.1474 9.10007C22.8691 9.49476 23.4217 9.93455 23.8615 10.6112C24.3013 11.2201 24.6396 11.9531 24.8651 12.7312C24.9779 13.5093 25.0343 14.2986 24.9779 15.1895H16.9376C16.9376 16.0803 17.2759 16.9148 17.7157 17.3659L17.6931 17.3884ZM21.1889 11.5246C20.8055 11.1299 20.1853 10.9156 19.4749 10.9156C18.9787 10.9156 18.584 11.0284 18.257 11.1975C17.9187 11.3667 17.7044 11.5922 17.4789 11.8065C17.2533 12.032 17.1406 12.3139 17.0955 12.5846C17.0391 12.8665 16.9827 13.092 16.9827 13.3063H21.9783C21.8655 12.4718 21.5949 11.908 21.2002 11.5246H21.1889ZM16.3061 5.67196H22.5196V7.18304H16.3061V5.67196Z" fill="#222222"/>
</svg>
