<svg width="25" height="25" viewBox="0 0 25 25" fill="none" xmlns="http://www.w3.org/2000/svg">
<path d="M12.5 0C5.6 0 0 5.6 0 12.5C0 19.4 5.6 25 12.5 25C19.4 25 25 19.4 25 12.5C25 5.6 19.3875 0 12.5 0ZM20.7625 5.7625C22.25 7.575 23.15 9.9 23.175 12.4C22.825 12.3375 19.3 11.6125 15.75 12.0625C15.6625 11.8875 15.6 11.7 15.525 11.5125C15.3125 11 15.0625 10.4625 14.825 9.9625C18.7625 8.3625 20.55 6.0625 20.775 5.7625H20.7625ZM12.5 1.85C15.2125 1.85 17.6875 2.8625 19.575 4.5375C19.3875 4.8125 17.775 6.9625 13.975 8.3875C12.225 5.175 10.2875 2.55 9.9875 2.1375C10.7875 1.95 11.625 1.85 12.5 1.85ZM7.9625 2.85C8.25 3.225 10.15 5.875 11.925 9.0125C6.9375 10.3375 2.525 10.3125 2.05 10.3125C2.7375 7 4.975 4.25 7.9625 2.8375V2.85ZM1.8125 12.5125V12.1875C2.275 12.2 7.45 12.275 12.775 10.675C13.0875 11.275 13.375 11.8875 13.6375 12.4875C13.5 12.525 13.35 12.575 13.2125 12.6125C7.7125 14.3875 4.775 19.2375 4.5375 19.65C2.8375 17.7625 1.8 15.2625 1.8 12.525L1.8125 12.5125ZM12.5 23.1875C10.0375 23.1875 7.75 22.35 5.95 20.9375C6.1375 20.55 8.3125 16.3625 14.325 14.2625C14.35 14.25 14.3625 14.25 14.3875 14.2375C15.8875 18.125 16.5 21.4 16.6625 22.3375C15.375 22.8875 13.9625 23.1875 12.4875 23.1875H12.5ZM18.45 21.35C18.3375 20.7 17.775 17.575 16.375 13.75C19.725 13.225 22.65 14.0875 23.0125 14.2125C22.55 17.1875 20.8375 19.75 18.4375 21.3625L18.45 21.35Z" fill="#222222"/>
</svg>
