<svg width="25" height="25" viewBox="0 0 25 25" fill="none" xmlns="http://www.w3.org/2000/svg">
<path d="M12.4937 8.75C10.4177 8.75 8.74187 10.425 8.74187 12.5C8.74187 14.575 10.4177 16.25 12.4937 16.25C14.5698 16.25 16.2456 14.575 16.2456 12.5C16.2456 10.425 14.5698 8.75 12.4937 8.75ZM12.4937 6.25C15.9455 6.25 18.7469 9.05 18.7469 12.5C18.7469 15.95 15.9455 18.75 12.4937 18.75C9.04202 18.75 6.24062 15.95 6.24062 12.5C6.24062 9.05 9.04202 6.25 12.4937 6.25ZM20.6228 5.9375C20.6228 6.8 19.9225 7.5 19.0595 7.5C18.1966 7.5 17.4962 6.8 17.4962 5.9375C17.4962 5.075 18.1966 4.375 19.0595 4.375C19.9225 4.375 20.6228 5.075 20.6228 5.9375ZM12.4937 2.5C9.4047 2.5 8.89195 2.5 7.45373 2.575C6.47824 2.625 5.81541 2.75 5.2026 2.9875C4.66483 3.2 4.26463 3.45 3.85193 3.8625C3.43922 4.275 3.17659 4.675 2.97649 5.2125C2.73887 5.825 2.6013 6.475 2.56378 7.4625C2.50125 8.8375 2.48874 9.325 2.48874 12.5C2.48874 15.675 2.48874 16.1 2.56378 17.5375C2.61381 18.5125 2.73887 19.175 2.97649 19.7875C3.18909 20.325 3.43922 20.725 3.85193 21.1375C4.27714 21.5625 4.66483 21.8125 5.2026 22.0125C5.81541 22.25 6.47824 22.3875 7.45373 22.425C8.82941 22.4875 9.31716 22.5 12.4937 22.5C15.6703 22.5 16.0955 22.5 17.5338 22.425C18.5093 22.375 19.1721 22.25 19.7849 22.0125C20.3227 21.8 20.7229 21.55 21.1356 21.1375C21.5608 20.7125 21.8109 20.325 22.011 19.7875C22.2486 19.175 22.3862 18.5125 22.4237 17.5375C22.4862 16.1625 22.4988 15.675 22.4988 12.5C22.4988 9.325 22.4988 8.9 22.4237 7.4625C22.3737 6.4875 22.2486 5.825 22.011 5.2125C21.7984 4.675 21.5483 4.275 21.1356 3.8625C20.7104 3.4375 20.3227 3.1875 19.7849 2.9875C19.1721 2.75 18.5218 2.6125 17.5338 2.575C16.1581 2.5125 15.6703 2.5 12.4937 2.5ZM12.4937 0C15.8954 0 16.3207 0 17.6463 0.075C18.972 0.1375 19.8849 0.35 20.6853 0.6625C21.5108 0.975 22.2111 1.4125 22.899 2.1C23.5993 2.8 24.0245 3.4875 24.3372 4.3125C24.6498 5.1125 24.8624 6.0125 24.925 7.35C24.9875 8.6875 25 9.1125 25 12.5C25 15.8875 24.9875 16.325 24.925 17.65C24.8624 18.975 24.6498 19.8875 24.3372 20.6875C24.0245 21.5125 23.5868 22.2125 22.899 22.9C22.1986 23.6 21.5108 24.025 20.6853 24.3375C19.8849 24.65 18.9845 24.85 17.6463 24.925C16.3082 24.9875 15.8829 25 12.4937 25C9.10455 25 8.66683 24.9875 7.34117 24.925C6.01551 24.8625 5.10255 24.65 4.30215 24.3375C3.47674 24.025 2.77639 23.5875 2.08854 22.9C1.38819 22.2 0.962982 21.5125 0.650325 20.6875C0.337669 19.8875 0.137569 18.9875 0.0750375 17.65C0.0125063 16.3125 0 15.8875 0 12.5C0 9.1125 7.45058e-09 8.675 0.0750375 7.35C0.137569 6.0125 0.350175 5.1125 0.650325 4.3125C0.962982 3.4875 1.4007 2.7875 2.08854 2.1C2.78889 1.4 3.47674 0.975 4.30215 0.6625C5.10255 0.35 6.003 0.1375 7.34117 0.075C8.67934 0.0125 9.10455 0 12.4937 0Z" fill="#222222"/>
</svg>
