<svg width="25" height="25" viewBox="0 0 25 25" fill="none" xmlns="http://www.w3.org/2000/svg">
<path d="M21.3056 21.2937H17.5972V15.4914C17.5972 14.1033 17.5694 12.3265 15.6667 12.3265C13.7639 12.3265 13.4444 13.8257 13.4444 15.3803V21.2798H9.73611V9.36979H13.2917V10.9939H13.3333C13.8333 10.05 15.0417 9.06441 16.8472 9.06441C20.5972 9.06441 21.2917 11.5353 21.2917 14.7418V21.2798L21.3056 21.2937ZM5.55556 7.73182C4.36111 7.73182 3.40278 6.77401 3.40278 5.58023C3.40278 4.38645 4.36111 3.42865 5.55556 3.42865C6.75 3.42865 7.70833 4.38645 7.70833 5.58023C7.70833 6.77401 6.75 7.73182 5.55556 7.73182ZM7.41667 21.2937H3.70833V9.36979H7.41667V21.2937ZM23.1528 0H1.84722C0.819444 0 0 0.805108 0 1.80455V23.1954C0 24.1949 0.819444 25 1.84722 25H23.1528C24.1667 25 25 24.1949 25 23.1954V1.80455C25 0.805108 24.1667 0 23.1528 0Z" fill="#222222"/>
</svg>
