<svg width="25" height="25" viewBox="0 0 25 25" fill="none" xmlns="http://www.w3.org/2000/svg">
<path d="M14.1023 12.5C14.1023 16.4205 10.9432 19.6023 7.05682 19.6023C3.17045 19.6023 0 16.4205 0 12.5C0 8.57955 3.15909 5.39773 7.04545 5.39773C10.9318 5.39773 14.0909 8.57955 14.0909 12.5H14.1023ZM21.8409 12.5C21.8409 16.1932 20.2614 19.1818 18.3182 19.1818C16.375 19.1818 14.7955 16.1932 14.7955 12.5C14.7955 8.80682 16.3636 5.81818 18.3068 5.81818C20.25 5.81818 21.8295 8.80682 21.8295 12.5H21.8409ZM25 12.5C25 15.8068 24.4432 18.4886 23.7614 18.4886C23.0795 18.4886 22.5227 15.8068 22.5227 12.5C22.5227 9.19318 23.0795 6.51136 23.7614 6.51136C24.4432 6.51136 25 9.19318 25 12.5Z" fill="#222222"/>
</svg>
