<svg width="25" height="25" viewBox="0 0 25 25" fill="none" xmlns="http://www.w3.org/2000/svg">
<path d="M6.57171 20.6125L7.47126 21.1375C8.98301 22.025 10.7071 22.4875 12.4938 22.4875C18.016 22.4875 22.4888 18.0125 22.4888 12.4875C22.4888 6.9625 18.0285 2.5 12.5062 2.5C6.98401 2.5 2.51124 6.975 2.51124 12.5C2.51124 14.3 2.98601 16.0125 3.86057 17.525L4.38531 18.425L3.57321 21.425L6.57171 20.6V20.6125ZM0.0124938 25L1.69915 18.7875C0.624688 16.9375 0 14.7875 0 12.5C0.0124938 5.6 5.6097 0 12.5062 0C19.4028 0 25 5.6 25 12.5C25 19.4 19.4028 25 12.5062 25C10.2199 25 8.07096 24.3875 6.22189 23.3L0.0124938 25ZM7.996 6.6375C8.15842 6.6375 8.33333 6.625 8.49575 6.6375C8.55822 6.6375 8.63318 6.6375 8.69565 6.6625C8.89555 6.6875 9.10795 6.8125 9.18291 6.975C9.55772 7.825 9.92004 8.675 10.2699 9.525C10.3448 9.7125 10.2949 9.9625 10.1574 10.2C10.0825 10.325 9.97002 10.4875 9.83258 10.6625C9.69515 10.8375 9.38281 11.175 9.38281 11.175C9.38281 11.175 9.25787 11.325 9.30785 11.5125C9.32034 11.5875 9.38281 11.6875 9.43278 11.7625C9.45777 11.8125 9.48276 11.85 9.50775 11.875C9.83258 12.4125 10.2574 12.95 10.7821 13.4625C10.932 13.6125 11.082 13.7625 11.2319 13.9C11.8191 14.4125 12.4813 14.8375 13.1934 15.15C13.2934 15.2 13.3558 15.225 13.5057 15.2875C13.5807 15.325 13.6682 15.35 13.7431 15.375C13.7681 15.375 13.8056 15.375 13.8306 15.3875C14.0305 15.3875 14.1554 15.275 14.2054 15.2125C15.1049 14.1125 15.1924 14.05 15.1924 14.05C15.3173 13.925 15.4923 13.8875 15.6672 13.8875C15.7421 13.8875 15.8171 13.9125 15.8921 13.9375C16.5542 14.2375 17.6412 14.7125 17.6412 14.7125L18.3658 15.0375C18.4908 15.1 18.6032 15.2375 18.6032 15.375C18.6032 15.4625 18.6032 15.5875 18.5907 15.8375C18.5532 16.1625 18.4533 16.55 18.3533 16.75C18.2784 16.8875 18.1909 17.025 18.091 17.125C17.9535 17.275 17.8411 17.3625 17.6787 17.4875C17.5787 17.5625 17.5287 17.6 17.5287 17.6C17.3538 17.7125 17.2539 17.7625 17.054 17.875C16.7291 18.05 16.3793 18.15 16.017 18.1625C15.7796 18.1625 15.5547 18.1875 15.3173 18.175L14.6052 18.0625C12.8311 17.6 11.1819 16.725 9.8076 15.5C9.52024 15.25 9.27037 14.9875 8.9955 14.7125C7.88356 13.6 7.04648 12.4125 6.53423 11.2875C6.28436 10.725 6.12194 10.1375 6.12194 9.525C6.12194 8.7625 6.37181 8.025 6.82159 7.425C6.90905 7.3125 6.9965 7.1875 7.14643 7.0375C7.30885 6.8875 7.4088 6.8125 7.50875 6.75C7.65867 6.675 7.8086 6.6375 7.97101 6.625L7.996 6.6375Z" fill="#222222"/>
</svg>
