<svg width="25" height="25" viewBox="0 0 25 25" fill="none" xmlns="http://www.w3.org/2000/svg">
<path d="M12.8 2.5125C13.4625 2.5125 15.1375 2.5375 16.9125 2.6L17.5375 2.625C19.325 2.7125 21.1125 2.85 22 3.1C23.175 3.4375 24.1125 4.4 24.425 5.625C24.925 7.575 24.9875 11.375 25 12.3V12.4875V12.5V12.7C25 13.625 24.925 17.425 24.425 19.375C24.1125 20.6125 23.175 21.575 22 21.9C21.1125 22.15 19.325 22.2875 17.5375 22.375L16.9125 22.4C15.1375 22.475 13.4625 22.4875 12.8 22.4875H12.5125H12.5H12.2C10.7875 22.4875 4.875 22.4125 3 21.8875C1.825 21.55 0.8875 20.5875 0.575 19.3625C0.075 17.4375 0 13.6375 0 12.7125V12.3C0 11.375 0.075 7.575 0.575 5.625C0.8875 4.3875 1.825 3.425 3 3.1C4.875 2.5875 10.775 2.5125 12.1875 2.5125H12.8ZM10 8.1375V16.8875L17.5 12.5125L10 8.1375Z" fill="#222222"/>
</svg>
