<svg width="176" height="18" viewBox="0 0 176 18" fill="none" xmlns="http://www.w3.org/2000/svg">
<path d="M166.589 17.376C164.205 17.376 162.341 16.712 160.997 15.384C159.653 14.056 158.981 12.16 158.981 9.696V0.287994H162.869V9.552C162.869 11.152 163.197 12.304 163.853 13.008C164.509 13.712 165.429 14.064 166.613 14.064C167.797 14.064 168.717 13.712 169.373 13.008C170.029 12.304 170.357 11.152 170.357 9.552V0.287994H174.197V9.696C174.197 12.16 173.525 14.056 172.181 15.384C170.837 16.712 168.973 17.376 166.589 17.376Z" fill="black"/>
<path d="M141.943 17.088V14.568L152.335 2.04L152.815 3.456H142.135V0.287994H156.271V2.80799L145.903 15.336L145.423 13.92H156.631V17.088H141.943Z" fill="black"/>
<path d="M135.148 17.088V0.287994H139.036V17.088H135.148Z" fill="black"/>
<path d="M112.226 17.088V0.287994H115.442L122.594 12.144H120.89L127.922 0.287994H131.114L131.162 17.088H127.514L127.49 5.88H128.162L122.546 15.312H120.794L115.058 5.88H115.874V17.088H112.226Z" fill="black"/>
<path d="M104.351 17.088V0.287994H108.239V17.088H104.351Z" fill="black"/>
<path d="M96.4886 0.287994H100.377V17.088H96.4886V0.287994ZM88.8566 17.088H84.9686V0.287994H88.8566V17.088ZM96.7766 10.2H88.5686V6.91199H96.7766V10.2Z" fill="black"/>
<path d="M75.1839 17.376C73.8399 17.376 72.5519 17.2 71.3199 16.848C70.0879 16.48 69.0959 16.008 68.3439 15.432L69.6639 12.504C70.3839 13.016 71.2319 13.44 72.2079 13.776C73.1999 14.096 74.1999 14.256 75.2079 14.256C75.9759 14.256 76.5919 14.184 77.0559 14.04C77.5359 13.88 77.8879 13.664 78.1119 13.392C78.3359 13.12 78.4479 12.808 78.4479 12.456C78.4479 12.008 78.2719 11.656 77.9199 11.4C77.5679 11.128 77.1039 10.912 76.5279 10.752C75.9519 10.576 75.3119 10.416 74.6079 10.272C73.9199 10.112 73.2239 9.92 72.5199 9.696C71.8319 9.472 71.1999 9.184 70.6239 8.832C70.0479 8.48 69.5759 8.016 69.2079 7.44C68.8559 6.864 68.6799 6.128 68.6799 5.232C68.6799 4.272 68.9359 3.4 69.4479 2.616C69.9759 1.816 70.7599 1.184 71.7999 0.719999C72.8559 0.24 74.1759 0 75.7599 0C76.8159 0 77.8559 0.128 78.8799 0.383999C79.9039 0.623999 80.8079 0.992 81.5919 1.488L80.3919 4.44C79.6079 3.992 78.8239 3.664 78.0399 3.456C77.2559 3.232 76.4879 3.12 75.7359 3.12C74.9839 3.12 74.3679 3.208 73.8879 3.384C73.4079 3.56 73.0639 3.792 72.8559 4.08C72.6479 4.352 72.5439 4.672 72.5439 5.04C72.5439 5.472 72.7199 5.824 73.0719 6.096C73.4239 6.352 73.8879 6.56 74.4639 6.72C75.0399 6.88 75.6719 7.04 76.3599 7.2C77.0639 7.36 77.7599 7.544 78.4479 7.752C79.1519 7.96 79.7919 8.24 80.3679 8.592C80.9439 8.944 81.4079 9.408 81.7599 9.984C82.1279 10.56 82.3119 11.288 82.3119 12.168C82.3119 13.112 82.0479 13.976 81.5199 14.76C80.9919 15.544 80.1999 16.176 79.1439 16.656C78.1039 17.136 76.7839 17.376 75.1839 17.376Z" fill="black"/>
<path d="M54.9921 17.088V0.287994H58.8801V17.088H54.9921Z" fill="black"/>
<path d="M40.7064 13.248L40.4904 8.76L48.5304 0.287994H52.8504L45.6024 8.08799L43.4424 10.392L40.7064 13.248ZM37.2264 17.088V0.287994H41.0904V17.088H37.2264ZM48.7224 17.088L42.7464 9.768L45.2904 7.008L53.2584 17.088H48.7224Z" fill="black"/>
<path d="M25.7764 17.376C23.3924 17.376 21.5284 16.712 20.1844 15.384C18.8404 14.056 18.1684 12.16 18.1684 9.696V0.287994H22.0564V9.552C22.0564 11.152 22.3844 12.304 23.0404 13.008C23.6964 13.712 24.6164 14.064 25.8004 14.064C26.9844 14.064 27.9044 13.712 28.5604 13.008C29.2164 12.304 29.5444 11.152 29.5444 9.552V0.287994H33.3844V9.696C33.3844 12.16 32.7124 14.056 31.3684 15.384C30.0244 16.712 28.1604 17.376 25.7764 17.376Z" fill="black"/>
<path d="M6.504 17.088V10.224L7.392 12.576L0 0.287994H4.128L9.792 9.72H7.416L13.104 0.287994H16.92L9.528 12.576L10.392 10.224V17.088H6.504Z" fill="black"/>
</svg>
